<svg width="249" height="61" viewBox="0 0 249 61" fill="none" xmlns="http://www.w3.org/2000/svg">
<path d="M58.5648 48.4406H63.7155C67.4342 48.4406 70.0288 45.96 70.0288 42.4C70.0288 38.84 67.4342 36.3604 63.7155 36.3604H58.5648V48.4406ZM53.4915 60.2937V31.4802H63.1742C70.4555 31.4802 75.2582 35.8133 75.2582 42.4C75.2582 48.9867 70.4555 53.3208 63.1742 53.3208H58.5648V60.2937H53.4915Z" fill="#1A2218"/>
<path d="M77.2328 49.3333V31.4802H82.3062V49.2542C82.3062 53.3608 84.7848 55.7208 89.0448 55.7208C93.3435 55.7208 95.7835 53.3608 95.7835 49.2542V31.4802H100.857V49.3333C100.857 56.4267 96.4035 60.6802 89.0448 60.6802C81.6862 60.6802 77.2328 56.4267 77.2328 49.3333Z" fill="#1A2218"/>
<path d="M115.186 55.8406C118.362 55.8406 120.221 54.3735 120.221 51.8135C120.221 49.2535 118.478 47.6667 115.69 47.6667H108.681V55.8406H115.186ZM113.947 35.9333H108.681V43.2135H113.87C116.426 43.2135 118.13 41.7471 118.13 39.4938C118.13 37.2938 116.542 35.9333 113.947 35.9333ZM125.45 51.8937C125.45 57.0004 121.422 60.2937 115.342 60.2937H103.606V31.4802H114.257C119.601 31.4802 123.281 34.6537 123.281 39.2271C123.281 41.5871 122.003 43.7608 119.911 44.7208C123.435 45.6942 125.45 48.2937 125.45 51.8937Z" fill="#1A2218"/>
<path d="M133.389 55.374H146.325V60.2937H128.315V31.4802H133.389V55.374Z" fill="#1A2218"/>
<path d="M151.581 39.5604H148.917V60.2937H153.99V38.9469C153.274 39.3469 152.452 39.5604 151.581 39.5604Z" fill="#1A2218"/>
<path d="M156.006 57.2L158.562 53.0542C161.466 55.0675 163.79 55.9208 166.462 55.9208C169.677 55.9208 171.69 54.5202 171.69 52.2802C171.69 50.1069 170.374 49.0267 165.921 47.6667C159.569 45.8133 157.167 43.4942 157.167 39.1875C157.167 34.4275 161.273 31.0938 167.082 31.0938C170.374 31.0938 173.511 31.9875 176.145 33.6542L173.627 37.8271C171.303 36.4404 169.368 35.8542 167.121 35.8542C164.178 35.8542 162.357 37.094 162.357 39.0406C162.357 40.894 163.636 41.8271 168.206 43.2938C174.286 45.2271 176.881 47.9075 176.881 52.1208C176.881 57.2008 172.621 60.6802 166.462 60.6802C162.706 60.6802 158.833 59.4 156.006 57.2Z" fill="#1A2218"/>
<path d="M197.91 31.4802H202.984V60.2937H197.91V47.7469H184.083V60.2937H179.01V31.4802H184.083V42.8667H197.91V31.4802Z" fill="#1A2218"/>
<path d="M224.322 36.3604H211V43.1333H223.006V47.7875H211V55.4135H224.322V60.2937H205.926V31.4802H224.322V36.3604Z" fill="#1A2218"/>
<path d="M231.953 48.2542H237.102C240.821 48.2542 243.415 45.8538 243.415 42.2938C243.415 38.7204 240.821 36.3604 237.102 36.3604H231.953V48.2542ZM243.533 51.2271L247.909 60.2937H242.37L238.768 52.6667C238.072 52.7467 237.335 52.7875 236.561 52.7875H231.953V60.2937H226.878V31.4802H236.561C243.842 31.4802 248.645 35.7071 248.645 42.2938C248.645 46.4271 246.746 49.5337 243.533 51.2271Z" fill="#1A2218"/>
<path d="M56.5635 20.4542H66.3008V24.1469H52.7448V2.46667H56.5635V20.4542Z" fill="#1A2218"/>
<path d="M82.0995 6.13333H72.0715V11.2406H81.1088V14.7333H72.0715V20.4802H82.0995V24.1469H68.2528V2.46667H82.0995V6.13333Z" fill="#1A2218"/>
<path d="M96.7341 16.9208L93.5275 9.89375L90.3782 16.9208H96.7341ZM99.9395 24.1469L98.1035 20.2135H88.9795L87.1715 24.1469H82.9155L93.5275 2.02708L104.197 24.1469H99.9395Z" fill="#1A2218"/>
<path d="M118.86 6.16042H109.124V11.8135H117.314V15.4938H109.124V24.1469H105.304V2.46667H118.86V6.16042Z" fill="#1A2218"/>
<path d="M148.346 33.4V36.9875H151.604C153.234 36.9875 154.556 35.6673 154.556 34.0406V30.4406H151.298C149.668 30.4406 148.346 31.76 148.346 33.4ZM45.2969 25.4542C44.9462 25.6942 44.5969 25.9604 44.2515 26.2271C39.2609 30.2537 34.8489 37.9871 29.6035 42.8271C26.5502 45.6537 23.2129 47.5067 19.3142 47.0667C17.6462 46.8933 16.2115 46.08 15.1609 44.9333C13.5609 43.1867 12.8595 40.6402 13.6502 38.2135C16.6889 28.8669 33.4195 24.8802 33.4195 24.8802C27.4542 24.2669 11.9115 24.8671 7.13019 41.6271C5.30219 48.0271 4.81553 55.1073 4.83419 60.974H39.2102C42.2849 60.974 44.8009 58.6933 45.2129 55.7333V29.1073L45.1982 29.1208L45.2129 28.8271V28.4937L45.2302 28.4667C45.2422 28.28 45.2422 28.0942 45.2729 27.9208L45.2969 27.8406C45.7622 25.494 47.7582 24.1469 47.7582 24.1469C46.9169 24.4535 46.0995 24.9075 45.2969 25.4542ZM6.5782 21.8542C5.56354 23.1342 2.89686 26.8533 1.26619 32.4C0.660857 34.4667 0.194211 36.7604 0.0208779 39.2937C0.0208779 39.2937 -0.331121 30.3475 1.85555 22.3208V0H39.2102C42.5715 0 45.2969 2.72042 45.2969 6.09375V22C39.4742 17.3467 24.2155 7.62687 9.49155 19.0802C8.40755 19.9335 7.44887 20.8675 6.5782 21.8542Z" fill="#85C727"/>
</svg>
