<svg xmlns="http://www.w3.org/2000/svg" viewBox="0 0 49 61" fill="none">
  <path
    d="M45.2969 25.4542C44.9462 25.6942 44.5969 25.9604 44.2515 26.2271C39.2609 30.2537 34.8489 37.9871 29.6035 42.8271C26.5502 45.6537 23.2129 47.5067 19.3142 47.0667C17.6462 46.8933 16.2115 46.08 15.1609 44.9333C13.5609 43.1867 12.8595 40.6402 13.6502 38.2135C16.6889 28.8669 33.4195 24.8802 33.4195 24.8802C27.4542 24.2669 11.9115 24.8671 7.13019 41.6271C5.30219 48.0271 4.81553 55.1073 4.83419 60.974H39.2102C42.2849 60.974 44.8009 58.6933 45.2129 55.7333V29.1073L45.1982 29.1208L45.2129 28.8271V28.4937L45.2302 28.4667C45.2422 28.28 45.2422 28.0942 45.2729 27.9208L45.2969 27.8406C45.7622 25.494 47.7582 24.1469 47.7582 24.1469C46.9169 24.4535 46.0995 24.9075 45.2969 25.4542ZM6.5782 21.8542C5.56354 23.1342 2.89686 26.8533 1.26619 32.4C0.660857 34.4667 0.194211 36.7604 0.0208779 39.2937C0.0208779 39.2937 -0.331121 30.3475 1.85555 22.3208V0H39.2102C42.5715 0 45.2969 2.72042 45.2969 6.09375V22C39.4742 17.3467 24.2155 7.62687 9.49155 19.0802C8.40755 19.9335 7.44887 20.8675 6.5782 21.8542Z"
    fill="#85C727"
  />
</svg>
